<?xml version="1.0" encoding="utf-8"?>
<!-- Generator: Adobe Illustrator 18.0.0, SVG Export Plug-In . SVG Version: 6.00 Build 0)  -->
<!DOCTYPE svg PUBLIC "-//W3C//DTD SVG 1.1//EN" "http://www.w3.org/Graphics/SVG/1.1/DTD/svg11.dtd">
<svg version="1.1" id="Layer_1" xmlns="http://www.w3.org/2000/svg" xmlns:xlink="http://www.w3.org/1999/xlink" x="0px" y="0px"
	 viewBox="0 0 22.8 21.6" enable-background="new 0 0 22.8 21.6" xml:space="preserve">
<g>
	<path fill="#DDDDDD" stroke="#B3B3B3" stroke-miterlimit="10" d="M17.8,19.2H3.5c-1.6,0-3-1.4-3-3V5.4c0-1.7,1.4-3,3-3h14.3
		c1.7,0,3,1.4,3,3v10.7C20.8,17.8,19.5,19.2,17.8,19.2z"/>
	<g>
		<path fill="#DDDDDD" stroke="#B3B3B3" stroke-miterlimit="10" d="M19.2,4.9H9.5C8.5,4.9,7.7,4,7.7,3V2.4c0-1,0.8-1.9,1.9-1.9h9.7
			c1,0,1.9,0.8,1.9,1.9V3C21.1,4,20.3,4.9,19.2,4.9z"/>
		<path fill="#DDDDDD" stroke="#B3B3B3" stroke-miterlimit="10" d="M19.2,21.1H9.5c-1,0-1.9-0.8-1.9-1.9v-0.6c0-1,0.8-1.9,1.9-1.9
			h9.7c1,0,1.9,0.8,1.9,1.9v0.6C21.1,20.3,20.3,21.1,19.2,21.1z"/>
	</g>
	<path fill="#DDDDDD" stroke="#B3B3B3" stroke-miterlimit="10" d="M20.8,18h-0.5c-0.8,0-1.4-0.6-1.4-1.4V5.4c0-0.8,0.6-1.4,1.4-1.4
		h0.5c0.8,0,1.4,0.6,1.4,1.4v11.2C22.3,17.4,21.6,18,20.8,18z"/>
</g>
</svg>
