<?xml version="1.0" encoding="utf-8"?>
<!-- Generator: Adobe Illustrator 19.0.0, SVG Export Plug-In . SVG Version: 6.00 Build 0)  -->
<svg version="1.1" id="Pattern_Editing_Mode" xmlns="http://www.w3.org/2000/svg" xmlns:xlink="http://www.w3.org/1999/xlink"
	 x="0px" y="0px" viewBox="0 0 28 42.7" style="enable-background:new 0 0 28 42.7;" xml:space="preserve">
<style type="text/css">
	.st0{fill:#C0C0C0;}
</style>
<g>
	<path class="st0" d="M28,21.4c0-1.5,0-3.1,0-4.6c0-5.2,0-10.4,0-15.6C28,0.3,27.7,0,26.8,0C18.3,0,9.7,0,1.2,0C1.1,0,1,0,0.8,0.1
		C0.3,0.1,0,0.5,0,1.2C0,7.6,0,14,0,20.4c0,7,0,14.1,0,21.1c0,0.9,0.3,1.1,1.1,1.1c8.6,0,17.1,0,25.7,0c0.8,0,1.1-0.3,1.1-1.1
		C28,34.9,28,28.1,28,21.4C28,21.4,28,21.4,28,21.4z M14.9,40.8c0-0.6,0-1.2,0-1.8c-0.6,0-1.2,0-1.8,0c0,0.6,0,1.1,0,1.7
		c-3.7,0-7.5,0-11.2,0c0-13,0-25.9,0-38.9c3.7,0,7.4,0,11.2,0c0,0.6,0,1.1,0,1.7c0.6,0,1.2,0,1.8,0c0-0.6,0-1.1,0-1.7
		c3.8,0,7.5,0,11.2,0c0,13,0,25.9,0,38.9C22.4,40.8,18.7,40.8,14.9,40.8z"/>
	<path class="st0" d="M13.1,17.9c0.6,0,1.2,0,1.8,0c0,2.3,0,4.6,0,7c-0.6,0-1.2,0-1.8,0C13.1,22.6,13.1,20.3,13.1,17.9z"/>
	<path class="st0" d="M10.5,24.9c-0.6,0-1.2,0-1.8,0c0-2.3,0-4.6,0-7c0.6,0,1.2,0,1.8,0C10.5,20.3,10.5,22.6,10.5,24.9z"/>
	<path class="st0" d="M17.5,17.9c0.6,0,1.2,0,1.8,0c0,2.3,0,4.6,0,7c-0.6,0-1.2,0-1.8,0C17.5,22.6,17.5,20.3,17.5,17.9z"/>
	<path class="st0" d="M23.5,17.9c0,2.3,0,4.6,0,7c-0.6,0-1.2,0-1.8,0c0-2.3,0-4.6,0-7C22.3,17.9,22.9,17.9,23.5,17.9z"/>
	<path class="st0" d="M4.5,17.9c0.6,0,1.2,0,1.8,0c0,0.6,0,1.1,0,1.6c0,1.6,0,3.3,0,4.9c0,0.3-0.1,0.5-0.4,0.5c-0.4,0-0.9,0-1.4,0
		C4.5,22.6,4.5,20.3,4.5,17.9z"/>
	<path class="st0" d="M14.9,9c-0.6,0-1.2,0-1.8,0c0-0.9,0-1.8,0-2.7c0.6,0,1.2,0,1.8,0C14.9,7.2,14.9,8.1,14.9,9z"/>
	<path class="st0" d="M14.9,14.4c-0.6,0-1.2,0-1.8,0c0-0.9,0-1.8,0-2.7c0.6,0,1.2,0,1.8,0C14.9,12.6,14.9,13.5,14.9,14.4z"/>
	<path class="st0" d="M14.9,31.1c-0.6,0-1.2,0-1.8,0c0-0.9,0-1.8,0-2.7c0.6,0,1.2,0,1.8,0C14.9,29.3,14.9,30.1,14.9,31.1z"/>
	<path class="st0" d="M14.9,33.7c0,0.9,0,1.8,0,2.7c-0.6,0-1.2,0-1.8,0c0-0.9,0-1.7,0-2.7C13.7,33.7,14.3,33.7,14.9,33.7z"/>
</g>
</svg>
