<?xml version="1.0" encoding="utf-8"?>
<!-- Generator: Adobe Illustrator 19.0.0, SVG Export Plug-In . SVG Version: 6.00 Build 0)  -->
<svg version="1.1" id="Pattern_Editing_Mode" xmlns="http://www.w3.org/2000/svg" xmlns:xlink="http://www.w3.org/1999/xlink"
	 x="0px" y="0px" viewBox="0 0 39.8 45.3" style="enable-background:new 0 0 39.8 45.3;" xml:space="preserve">
<style type="text/css">
	.st0{fill:#C0C0C0;}
</style>
<g>
	<path class="st0" d="M7.5,45.3c-1,0-1.9-0.4-2.7-1.1c-0.7-0.7-1.1-1.7-1.1-2.7c0-0.1,0-0.2,0-0.2l0-1.5H2.9C1.3,39.8,0,38.6,0,37
		L0,2.9c0-0.8,0.3-1.5,0.8-2C1.4,0.3,2.1,0,2.9,0l34,0c1.6,0,2.9,1.3,2.9,2.9l0,34.1c0,1.6-1.3,2.9-2.9,2.9H36l0,1.5
		c0,0.1,0,0.2,0,0.2c0,1-0.4,1.9-1.1,2.7c-0.7,0.7-1.7,1.1-2.7,1.1c-2.1,0-3.8-1.7-3.8-3.8c0-0.1,0-0.2,0-0.2l0-1.5l-17.3,0l0,1.5
		c0,0.1,0,0.2,0,0.2C11.3,43.6,9.6,45.3,7.5,45.3C7.5,45.3,7.5,45.3,7.5,45.3z M5.8,37.7l0,3.7c0,0,0,0.1,0,0.1
		c0,0.4,0.2,0.9,0.5,1.2c0.3,0.3,0.7,0.5,1.2,0.5c0,0,0,0,0,0c0.9,0,1.7-0.7,1.7-1.7c0,0,0-0.1,0-0.1l0-0.1l0-3.6l21.5,0l0,3.7
		c0,0,0,0.1,0,0.1c0,0.9,0.7,1.7,1.7,1.7c0.4,0,0.9-0.2,1.2-0.5c0.3-0.3,0.5-0.7,0.5-1.2c0,0,0-0.1,0-0.1l0-0.1l0-3.6l3,0
		c0.4,0,0.8-0.3,0.8-0.8l0-34.1c0-0.4-0.3-0.8-0.8-0.8l-34,0c-0.2,0-0.4,0.1-0.5,0.2C2.2,2.5,2.1,2.7,2.1,2.9l0,34.1
		c0,0.4,0.3,0.8,0.8,0.8L5.8,37.7z M7.4,34.7c-1.9,0-3.5-1.6-3.5-3.5c0-1.9,1.6-3.5,3.5-3.5c1.9,0,3.5,1.6,3.5,3.5v0
		C10.9,33.1,9.3,34.7,7.4,34.7z M7.4,29.7c-0.8,0-1.4,0.6-1.4,1.4c0,0.8,0.6,1.4,1.4,1.4c0.8,0,1.4-0.6,1.4-1.4
		C8.8,30.4,8.2,29.7,7.4,29.7z M32.4,34.7c-1.9,0-3.5-1.6-3.5-3.5c0-1.9,1.6-3.5,3.5-3.5c1.9,0,3.5,1.6,3.5,3.5v0
		C35.9,33.1,34.3,34.7,32.4,34.7z M32.4,29.7c-0.8,0-1.4,0.6-1.4,1.4c0,0.8,0.6,1.4,1.4,1.4c0.8,0,1.4-0.6,1.4-1.4
		C33.8,30.4,33.2,29.7,32.4,29.7z M5.1,25.6c-0.8,0-1.4-0.6-1.4-1.4L3.8,5c0-0.7,0.6-1.4,1.4-1.4l29.6,0c0.8,0,1.4,0.6,1.4,1.4
		l0,19.3c0,0.7-0.6,1.4-1.4,1.4L5.1,25.6z M5.8,5.8l0,17.8l28.1,0l0-17.8L5.8,5.8z"/>
</g>
<g>
	<rect x="9.7" y="8.6" transform="matrix(0.7969 0.6042 -0.6042 0.7969 9.7474 -3.9506)" class="st0" width="2.1" height="7.8"/>
</g>
<g>
	<rect x="13.9" y="8.2" transform="matrix(0.7969 0.6042 -0.6042 0.7969 10.3487 -6.5912)" class="st0" width="2.1" height="7.8"/>
</g>
</svg>
