<?xml version="1.0" encoding="utf-8"?>
<!-- Generator: Adobe Illustrator 19.0.0, SVG Export Plug-In . SVG Version: 6.00 Build 0)  -->
<svg version="1.1" id="Layer_1" xmlns="http://www.w3.org/2000/svg" xmlns:xlink="http://www.w3.org/1999/xlink" x="0px" y="0px"
	 viewBox="0 0 19 19" style="enable-background:new 0 0 19 19;" xml:space="preserve">
<style type="text/css">
	.st0{fill:#AEAEAE;}
</style>
<path class="st0" d="M19,7.3c-0.1,0-0.1,0.1-0.2,0.1C15,11.2,11.2,15,7.4,18.8c0,0-0.1,0.1-0.1,0.2c-0.1,0-0.2,0-0.3,0
	c0-0.1-0.1-0.1-0.1-0.2c-0.6-0.6-1.2-1.2-1.8-1.8C5,17,5,17,4.9,16.9c0.5-0.4,0.7-0.8,0.7-1.4c0-0.6-0.1-1.1-0.5-1.5
	c-0.4-0.4-0.8-0.6-1.3-0.6c-0.7-0.1-1.3,0.1-1.7,0.7C2,14,2,14,1.9,13.9c-0.6-0.6-1.1-1.1-1.7-1.7C0.2,12.2,0.1,12.1,0,12
	c0-0.1,0-0.2,0-0.3c0.1,0,0.1-0.1,0.2-0.1C4,7.8,7.8,4,11.6,0.2c0,0,0.1-0.1,0.1-0.2c0.1,0,0.2,0,0.3,0c0,0.1,0.1,0.1,0.1,0.2
	c0.6,0.6,1.2,1.2,1.8,1.8C14,2,14,2,14.1,2.1c-0.5,0.4-0.7,0.8-0.7,1.4c0,0.6,0.1,1.1,0.5,1.5c0.4,0.4,0.8,0.6,1.3,0.6
	c0.7,0.1,1.3-0.1,1.7-0.7C17,5,17,5,17.1,5.1c0.6,0.6,1.2,1.2,1.8,1.8C18.9,6.9,18.9,6.9,19,7C19,7.1,19,7.2,19,7.3z M16.9,5.8
	c-0.9,0.7-2.4,0.6-3.3-0.3c-0.9-0.9-1.1-2.5-0.4-3.4c-0.5-0.5-0.9-0.9-1.3-1.3C10.7,2,9.4,3.2,8.2,4.5c0.3,0.3,0.6,0.6,0.9,0.9
	C8.9,5.6,8.8,5.7,8.7,5.9C8.3,5.5,8,5.2,7.7,4.9c-2.3,2.3-4.7,4.7-7,7c0.4,0.4,0.9,0.9,1.3,1.3c0.9-0.7,2.5-0.5,3.4,0.3
	c0.9,0.8,1.1,2.4,0.3,3.3c0.5,0.5,0.9,0.9,1.3,1.3c2.3-2.3,4.6-4.6,7-7c-0.3-0.3-0.6-0.6-0.9-0.9c0.1-0.2,0.3-0.3,0.4-0.5
	c0.3,0.3,0.6,0.7,0.9,1c1.2-1.2,2.5-2.5,3.7-3.7C17.8,6.7,17.3,6.2,16.9,5.8z"/>
<path class="st0" d="M11.8,8.2c0.4,0.4,0.7,0.8,1.1,1.1c-0.1,0.1-0.3,0.2-0.4,0.4c-0.4-0.4-0.7-0.8-1.1-1.1
	C11.5,8.4,11.7,8.3,11.8,8.2z"/>
<path class="st0" d="M9.3,6.4C9.4,6.3,9.6,6.2,9.7,6c0.4,0.4,0.8,0.8,1.2,1.2c-0.1,0.1-0.3,0.2-0.4,0.4C10.1,7.2,9.7,6.8,9.3,6.4z"
	/>
</svg>
