<?xml version="1.0" encoding="utf-8"?>
<!-- Generator: Adobe Illustrator 19.0.0, SVG Export Plug-In . SVG Version: 6.00 Build 0)  -->
<svg version="1.1" id="Layer_1" xmlns="http://www.w3.org/2000/svg" xmlns:xlink="http://www.w3.org/1999/xlink" x="0px" y="0px"
	 viewBox="0 0 17 17" style="enable-background:new 0 0 17 17;" xml:space="preserve">
<style type="text/css">
	.st0{fill:#AEAEAE;}
</style>
<g>
	<path class="st0" d="M0,7.7C0,7.6,0,7.6,0,7.7c0.2-0.7,0.7-1,1.2-1c1.1,0,2.1,0,3.2,0c0.9,0,1.7-0.4,2.4-1C7.5,5.1,7.9,4.2,8,3.3
		c0.1-0.7,0.1-1.3,0.2-2C8.3,0.6,8.6,0.1,9.4,0c0,0,0,0,0,0C9.6,0,9.8,0,10,0c0.3,0.1,0.6,0.2,0.9,0.4c0.5,0.4,0.7,0.9,0.9,1.4
		C12.2,3,12.2,4.2,12,5.4c0,0.4-0.1,0.9-0.2,1.3c0.1,0,0.1,0,0.2,0c1.1,0,2.3,0,3.4,0c0.7,0,1.3,0.5,1.5,1.1c0,0,0,0.1,0,0.1
		c0,0.2,0,0.3,0,0.5c-0.1,0.3-0.2,0.6-0.4,0.8c-0.2,0.1-0.4,0.3-0.5,0.4c0.7,0.9,0.3,2-0.6,2.4c0.4,0.5,0.5,1,0.2,1.6
		c-0.3,0.6-0.7,0.9-1.4,0.9c0,0.1,0.1,0.1,0.1,0.1c0.5,0.9,0,2-1,2.2c0,0-0.1,0-0.1,0C9.2,17,5.1,17,1,17c-0.2-0.1-0.3-0.1-0.5-0.2
		C0.2,16.6,0.1,16.3,0,16C0,13.2,0,10.4,0,7.7z M11.1,7.3c0-0.1,0-0.1,0-0.1c0.2-1.1,0.4-2.3,0.4-3.5c0-0.7-0.1-1.3-0.3-2
		c-0.1-0.3-0.3-0.7-0.6-0.9C9.7,0.3,8.8,0.6,8.7,1.6C8.6,2.2,8.6,2.8,8.5,3.4C8.5,4.6,8,5.6,7.1,6.3c-0.6,0.5-1.3,0.9-2.2,1
		c0,3,0,6.1,0,9.1c0,0,0.1,0,0.1,0c2.7,0,5.4,0,8.1,0c0.5,0,0.9-0.4,0.9-0.9c0-0.5-0.4-0.9-0.9-0.9c-0.3,0-0.6,0-0.9,0
		c0-0.2,0-0.4,0-0.6c0.1,0,0.1,0,0.2,0c0.6,0,1.3,0,1.9,0c0.5,0,0.9-0.4,0.9-0.9c0-0.5-0.4-0.9-0.9-0.9c-0.4,0-0.9,0-1.3,0
		c-0.1,0-0.1,0-0.2,0c0-0.2,0-0.4,0-0.6c0.1,0,0.1,0,0.2,0c0.6,0,1.3,0,1.9,0c0.5,0,0.9-0.4,0.9-0.9c0-0.5-0.4-0.9-0.9-0.9
		c-0.4,0-0.7,0-1.1,0c-0.1,0-0.3,0-0.4,0c0-0.2,0-0.4,0-0.6c0.7,0,1.4,0,2.1,0c0.2,0,0.4-0.1,0.6-0.2c0.3-0.2,0.5-0.6,0.3-1
		c-0.1-0.4-0.5-0.6-0.9-0.6c-1.4,0-2.8,0-4.1,0C11.3,7.3,11.2,7.3,11.1,7.3z M4.2,7.3c-1,0-2,0-3,0C0.8,7.3,0.6,7.5,0.6,8
		c0,2.6,0,5.2,0,7.7c0,0.4,0.2,0.7,0.7,0.7c0.9,0,1.9,0,2.8,0c0.1,0,0.1,0,0.2,0C4.2,13.3,4.2,10.3,4.2,7.3z"/>
	<path class="st0" d="M2.4,14C2.8,14,3,14.2,3,14.6c0,0.3-0.3,0.6-0.6,0.6c-0.3,0-0.6-0.3-0.6-0.6C1.8,14.2,2.1,14,2.4,14z"/>
</g>
</svg>
