<?xml version="1.0" encoding="utf-8"?>
<!-- Generator: Adobe Illustrator 19.0.0, SVG Export Plug-In . SVG Version: 6.00 Build 0)  -->
<svg version="1.1" id="Layer_1" xmlns="http://www.w3.org/2000/svg" xmlns:xlink="http://www.w3.org/1999/xlink" x="0px" y="0px"
	 viewBox="0 0 13 17.3" style="enable-background:new 0 0 13 17.3;" xml:space="preserve">
<style type="text/css">
	.st0{fill:#AEAEAE;}
</style>
<g>
	<path class="st0" d="M13,6.5c0,3.6,0,7.2,0,10.8c-4.3,0-8.7,0-13,0c0-3.6,0-7.2,0-10.8c0.7,0,1.4,0,2.2,0c0-0.1,0-0.1,0-0.2
		c0-0.7,0-1.3,0-2c0-1.8,1.2-3.5,2.9-4c0.3-0.1,0.7-0.2,1-0.2c0.2,0,0.5,0,0.7,0C7,0,7,0,7.1,0c2.2,0.4,3.7,2.1,3.7,4.4
		c0,0.6,0,1.3,0,1.9c0,0.1,0,0.1,0,0.2C11.6,6.5,12.3,6.5,13,6.5z M12.3,7.2c-3.9,0-7.7,0-11.5,0c0,3.1,0,6.2,0,9.4
		c3.9,0,7.7,0,11.5,0C12.3,13.5,12.3,10.4,12.3,7.2z M10.1,6.5c0-0.8,0-1.6,0-2.4c0-0.1,0-0.2,0-0.3C9.8,1.8,7.9,0.4,5.9,0.8
		C4.3,1,3,2.4,2.9,4c0,0.8,0,1.6,0,2.4c0,0,0,0,0,0.1C5.3,6.5,7.7,6.5,10.1,6.5z"/>
	<path class="st0" d="M6.4,10.1c0.4,0,0.6,0.2,0.7,0.5c0.1,0.3,0,0.6-0.2,0.8c-0.1,0.1-0.1,0.1-0.1,0.3c0,0.6,0,1.1,0,1.7
		c0,0.2,0,0.3-0.2,0.4c-0.3,0.1-0.5,0-0.5-0.4c0-0.5,0-0.9,0-1.4c0-0.1,0-0.1,0-0.2c0-0.2,0-0.3-0.2-0.4c-0.2-0.2-0.3-0.5-0.1-0.8
		C6,10.3,6.2,10.1,6.4,10.1z"/>
</g>
</svg>
