<?xml version="1.0" encoding="utf-8"?>
<!-- Generator: Adobe Illustrator 19.0.0, SVG Export Plug-In . SVG Version: 6.00 Build 0)  -->
<svg version="1.1" id="Layer_1" xmlns="http://www.w3.org/2000/svg" xmlns:xlink="http://www.w3.org/1999/xlink" x="0px" y="0px"
	 viewBox="0 0 72 83" style="enable-background:new 0 0 72 83;" xml:space="preserve">
<style type="text/css">
	.st0{fill:#C9C9C9;}
</style>
<g id="XMLID_1_">
	<path id="XMLID_43_" class="st0" d="M30.3,52.1c-10.6-3.5-16.3-10.8-17-21.7c-1.7-0.4-3.5-0.7-5-1.3c-4.9-2.1-7.6-6-8-11.3
		c-0.1-1.4-0.1-2.8,0-4.2c0-1.6,0.6-2.2,2.2-2.3c3.3,0,6.6,0,9.9,0c0.3,0,0.6,0,1,0c0.2-2.3,0.1-4.4-1.7-6.1c-0.9-0.8-2-1.4-3.2-1.5
		c-0.3,0-0.6-0.1-1-0.1c-1-0.2-1.6-0.9-1.6-1.9c0-0.9,0.7-1.6,1.7-1.7c0.3,0,0.6,0,0.9,0c18.4,0,36.8,0,55.2,0c0.3,0,0.6,0,0.9,0
		c1,0.1,1.6,0.8,1.6,1.8c0,1-0.6,1.7-1.5,1.8c-0.6,0.1-1.2,0.1-1.7,0.3c-2.6,0.7-4.2,2.9-4.2,5.5c0,0.6,0,1.2,0,1.9c0.4,0,0.7,0,1,0
		c3.3,0,6.6,0,9.9,0c1.6,0,2.3,0.6,2.3,2.2c0,2.4,0.2,4.7-0.5,7c-1.3,4.5-5.3,9.1-12.1,9.6c-0.2,0-0.3,0-0.5,0
		c-0.8,11.1-6.4,18.4-17,22c0,6.4,0,13,0,19.6c0.3,0,0.6,0,0.9,0c3.3,0,6.5,0,9.8,0c1.6,0,2.4,0.6,2.3,1.9c0,1.2-0.9,1.9-2.4,1.9
		c-10.7,0-21.4,0-32.1,0c-0.4,0-0.8,0-1.2,0c-1.2-0.1-1.9-0.8-1.9-1.9c0-1.1,0.8-1.8,2-1.8c3.7,0,7.4,0,11.1,0
		C30.3,65.2,30.3,58.7,30.3,52.1z M15.1,3.7c1.7,2.2,2,4.6,1.9,7.2c-0.1,6.2,0,12.4,0,18.7c0,1.3,0.1,2.6,0.3,4
		c1.8,10.7,12.8,17.8,23.4,14.9c8.4-2.3,14.1-9.7,14.2-18.4c0-6.4,0.1-12.8,0-19.2c0-2.5,0.3-4.9,1.8-7c0,0,0-0.1-0.1-0.2
		C42.9,3.7,29.1,3.7,15.1,3.7z M58.7,15c0,3.9,0,7.6,0,11.4c5.1,0,10-4.2,9.4-11c0-0.2-0.3-0.4-0.5-0.4C64.7,15,61.7,15,58.7,15z
		 M13.3,15c-3,0-6,0-9,0c-0.2,0-0.4,0.3-0.4,0.5c-0.1,2,0.1,4,1.1,5.8c1.6,3.1,5.2,5.3,8.3,5C13.3,22.6,13.3,18.9,13.3,15z
		 M34.1,52.8c0,6.3,0,12.6,0,18.9c1.3,0,2.5,0,3.7,0c0-6.4,0-12.6,0-18.9C36.6,52.8,35.4,52.8,34.1,52.8z"/>
	<path id="XMLID_42_" class="st0" d="M36,79.3c7.4,0,14.9,0,22.3,0c1.5,0,2.3,0.8,2.2,2.1c-0.1,0.8-0.7,1.4-1.5,1.5
		c-0.4,0.1-0.8,0-1.1,0c-14.6,0-29.1,0-43.7,0c-0.4,0-0.7,0-1.1,0c-1-0.1-1.6-0.8-1.6-1.8c0-1,0.6-1.7,1.6-1.8c0.3,0,0.7,0,1.1,0
		C21.4,79.3,28.7,79.3,36,79.3z"/>
</g>
</svg>
