<?xml version="1.0" encoding="utf-8"?>
<!-- Generator: Adobe Illustrator 19.0.0, SVG Export Plug-In . SVG Version: 6.00 Build 0)  -->
<svg version="1.1" id="Layer_1" xmlns="http://www.w3.org/2000/svg" xmlns:xlink="http://www.w3.org/1999/xlink" x="0px" y="0px"
	 viewBox="-29 34.1 11.6 15.9" style="enable-background:new -29 34.1 11.6 15.9;" xml:space="preserve">
<style type="text/css">
	.st0{fill:#175B98;}
</style>
<path id="XMLID_5_" class="st0" d="M-23.2,34.2c-3.2,0-5.7,2.6-5.7,5.7c0,0.7,0.1,1.5,0.4,2.1c0.2,0.5,0.5,1,0.9,1.5
	c0.3,0.4,0.6,0.8,0.9,1.2c1.1,1.6,3.5,5.1,3.7,5.2c1-1.5,2-2.9,3-4.3c0.5-0.7,1-1.4,1.5-2.1c0.1-0.2,0.2-0.3,0.3-0.5
	c0.3-0.4,0.5-0.9,0.7-1.3c0.2-0.6,0.3-1.3,0.3-2C-17.5,36.8-20.1,34.2-23.2,34.2z M-23.3,36.9c1.7,0,2.9,1.3,2.9,2.9
	c0,1.6-1.3,3-3,2.9c-1.6,0-2.9-1.3-2.9-2.9C-26.3,38.2-25,36.9-23.3,36.9z"/>
</svg>
