<?xml version="1.0" encoding="utf-8"?>
<!-- Generator: Adobe Illustrator 19.0.0, SVG Export Plug-In . SVG Version: 6.00 Build 0)  -->
<svg version="1.1" id="Layer_1" xmlns="http://www.w3.org/2000/svg" xmlns:xlink="http://www.w3.org/1999/xlink" x="0px" y="0px"
	 viewBox="-368 265.5 61.4 70.5" style="enable-background:new -368 265.5 61.4 70.5;" xml:space="preserve">
<style type="text/css">
	.st0{fill:url(#SVGID_1_);}
	.st1{fill:#1665B0;}
</style>
<linearGradient id="SVGID_1_" gradientUnits="userSpaceOnUse" x1="-358.0556" y1="287.5083" x2="-316.1449" y2="287.5083" gradientTransform="matrix(1 0 0 -1 0 603)">
	<stop  offset="0" style="stop-color:#F8BA17"/>
	<stop  offset="0.3111" style="stop-color:#F8B817"/>
	<stop  offset="0.4784" style="stop-color:#F7B21A"/>
	<stop  offset="0.6115" style="stop-color:#F6A81D"/>
	<stop  offset="0.7266" style="stop-color:#F59B20"/>
	<stop  offset="0.8301" style="stop-color:#F38A23"/>
	<stop  offset="0.9238" style="stop-color:#F27525"/>
	<stop  offset="1" style="stop-color:#F15C27"/>
</linearGradient>
<path class="st0" d="M-337.1,312.7c-7.3,0-14.4-1.5-21-3.6c4.6,6.6,12.3,12.8,21,12.8c8.7,0,16.3-6.2,21-12.8
	C-322.7,311.2-329.8,312.7-337.1,312.7z"/>
<path class="st1" d="M-310.1,265.5h-54.3c-2,0-3.6,1.6-3.6,3.6v54.4c0,2,1.6,3.6,3.6,3.6h2.5v4.2c0,0.1,0,0.2,0,0.3
	c0,2.4,2,4.4,4.4,4.4s4.4-2,4.4-4.4c0-0.1,0-0.2,0-0.3v-4.2h31.6v4.2c0,0.1,0,0.2,0,0.3c0,2.4,2,4.4,4.4,4.4s4.4-2,4.4-4.4
	c0-0.1,0-0.2,0-0.3v-4.2h2.5c2,0,3.6-1.6,3.6-3.6v-54.4C-306.6,267.1-308.2,265.5-310.1,265.5z M-337.3,320
	c-6.4,0-12.1-3.2-15.6-8.1c4.9,1.6,10.1,2.5,15.6,2.5c5.4,0,10.7-0.9,15.6-2.5C-325.2,316.8-330.9,320-337.3,320z M-312.5,283.2
	c-2.4,0-4.4,2-4.4,4.4s2,4.4,4.4,4.4v11.3c0,0.3-0.2,0.5-0.5,0.5h-48.4c-0.3,0-0.5-0.2-0.5-0.5v-11.2c2.4,0,4.4-2,4.4-4.4
	c0-2.4-2-4.4-4.4-4.4V272c0-0.3,0.3-0.5,0.5-0.5h48.3c0.3,0,0.5,0.2,0.5,0.5v11.2H-312.5z"/>
</svg>
