<?xml version="1.0" encoding="utf-8"?>
<!-- Generator: Adobe Illustrator 19.0.0, SVG Export Plug-In . SVG Version: 6.00 Build 0)  -->
<svg version="1.1" id="Pattern_Editing_Mode" xmlns="http://www.w3.org/2000/svg" xmlns:xlink="http://www.w3.org/1999/xlink"
	 x="0px" y="0px" viewBox="0 0 28 42.7" style="enable-background:new 0 0 28 42.7;" xml:space="preserve">
<style type="text/css">
	.st0{fill:#C0C0C0;}
</style>
<g>
	<path class="st0" d="M2.1,2.2l6.5,0c0.3,0.8,0.7,1.5,1.3,2.1C11,5.4,12.5,6,14,6c2.5,0,4.6-1.6,5.4-3.8l6.5,0l-0.1,38.4l-6.5,0
		c-0.8-2.2-2.9-3.8-5.4-3.8c-2.5,0-4.6,1.6-5.4,3.8l-6.5,0L2.1,2.2 M0.5,0.1c-0.2,0-0.4,0.2-0.4,0.4L0,42.1c0,0.2,0.2,0.4,0.4,0.4
		l9.7,0c0-2.1,1.7-3.8,3.8-3.8c0,0,0,0,0,0c2.1,0,3.8,1.7,3.8,3.8l9.7,0c0,0,0,0,0,0c0.2,0,0.4-0.2,0.4-0.4L28,0.6
		c0-0.2-0.2-0.4-0.4-0.4l-9.7,0C17.8,2.3,16.1,4,14,4c0,0,0,0,0,0c-2.1,0-3.8-1.7-3.8-3.8L0.5,0.1C0.5,0.1,0.5,0.1,0.5,0.1L0.5,0.1z
		"/>
</g>
</svg>
