<?xml version="1.0" encoding="utf-8"?>
<!-- Generator: Adobe Illustrator 19.0.0, SVG Export Plug-In . SVG Version: 6.00 Build 0)  -->
<svg version="1.1" id="Layer_1" xmlns="http://www.w3.org/2000/svg" xmlns:xlink="http://www.w3.org/1999/xlink" x="0px" y="0px"
	 viewBox="-28 34 15 15" style="enable-background:new -28 34 15 15;" xml:space="preserve">
<style type="text/css">
	.st0{fill:#D63D2D;}
</style>
<g>
	<path class="st0" d="M-18.1,45.7c0.6,0,1.2,0,1.8,0c0-0.4,0-0.9,0-1.3c-0.6,0-1.2,0-1.8,0C-18.1,44.9-18.1,45.3-18.1,45.7z"/>
	<path class="st0" d="M-21.4,45.7c0.6,0,1.2,0,1.8,0c0-0.4,0-0.9,0-1.3c-0.6,0-1.2,0-1.8,0C-21.4,44.8-21.4,45.3-21.4,45.7z"/>
	<path class="st0" d="M-24.6,45.7c0.6,0,1.2,0,1.8,0c0-0.4,0-0.9,0-1.3c-0.7,0-1.3,0-1.8,0C-24.6,44.9-24.6,45.3-24.6,45.7z"/>
	<path class="st0" d="M-18.1,43.3c0.7,0,1.2,0,1.8,0c0-0.4,0-0.9,0-1.3c-0.6,0-1.2,0-1.8,0C-18.1,42.5-18.1,42.9-18.1,43.3z"/>
	<path class="st0" d="M-21.4,43.4c0.6,0,1.2,0,1.8,0c0-0.4,0-0.9,0-1.3c-0.6,0-1.2,0-1.8,0C-21.4,42.6-21.4,43-21.4,43.4z"/>
	<path class="st0" d="M-22.9,42.1c-0.6,0-1.2,0-1.8,0c0,0.5,0,0.9,0,1.3c0.6,0,1.2,0,1.8,0C-22.9,43-22.9,42.5-22.9,42.1z"/>
	<path class="st0" d="M-18.1,41c0.6,0,1.2,0,1.8,0c0-0.4,0-0.9,0-1.3c-0.6,0-1.2,0-1.8,0C-18.1,40.2-18.1,40.6-18.1,41z"/>
	<path class="st0" d="M-21.4,41c0.6,0,1.2,0,1.8,0c0-0.4,0-0.8,0-1.3c-0.6,0-1.2,0-1.8,0C-21.4,40.2-21.4,40.6-21.4,41z"/>
	<path class="st0" d="M-24.6,41c0.6,0,1.2,0,1.8,0c0-0.5,0-0.9,0-1.3c-0.7,0-1.3,0-1.8,0C-24.6,40.2-24.6,40.6-24.6,41z"/>
	<path class="st0" d="M-14.7,35.4c-0.5,0-1,0-1.4,0c-0.2-0.5-0.3-1-0.5-1.4c0,0-0.1,0-0.2,0c-0.2,0.5-0.4,0.9-0.7,1.5
		c-0.8,0-1.7,0-2.5,0c-0.2-0.5-0.3-1-0.5-1.4c0,0-0.1,0-0.2,0c-0.1,0.5-0.3,0.9-0.5,1.4c-0.8,0-1.7,0-2.5,0c-0.2-0.5-0.3-1-0.5-1.4
		c0,0-0.1,0-0.2,0c-0.1,0.4-0.3,0.8-0.5,1.4c-0.4,0-0.9,0-1.4,0c-0.8-0.1-1.4,0.2-1.7,1c0,3.8,0,7.7,0,11.5c0.3,0.8,0.9,1,1.8,1
		c3.8,0,7.7,0,11.5,0c0.8,0,1.4-0.2,1.7-1.1c0-3.8,0-7.7,0-11.5C-13.3,35.6-13.9,35.3-14.7,35.4z M-13.8,37.1c0,2.3,0,4.7,0,7
		c0,1.2,0,2.3,0,3.5c0,0.4-0.1,0.6-0.6,0.6c-4.1,0-8.1,0-12.1,0c-0.4,0-0.6-0.1-0.6-0.5c0-3.6,0-7.1,0-10.7c0-0.4,0.1-0.5,0.5-0.5
		c0.1,0,0.1,0,0.2,0c0.5,0,1.1,0,1.7,0c0,0.3-0.1,0.6,0,0.9c0.1,0.2,0.3,0.3,0.4,0.5c0.1-0.2,0.3-0.3,0.4-0.5c0.1-0.2,0-0.6,0-0.9
		h0.4c0.9,0,1.7,0,2.5,0c0,0.3-0.1,0.6,0,0.9c0.1,0.2,0.3,0.3,0.4,0.5c0.1-0.2,0.3-0.3,0.4-0.5c0.1-0.2,0-0.6,0-0.9h0.4
		c0.2,0,0.4,0,0.6,0c0.2,0,0.4,0,0.6,0c0.4,0,0.9,0,1.4,0c0,0.3-0.1,0.6,0,0.9c0.1,0.2,0.3,0.3,0.4,0.5c0.1-0.2,0.3-0.3,0.4-0.5
		c0.1-0.2,0-0.6,0-0.9h0.2c0.2,0,0.4,0,0.6,0c0.5,0,0.9,0,1.4,0C-13.7,36.5-13.8,36.8-13.8,37.1z"/>
</g>
</svg>
