<?xml version="1.0" encoding="utf-8"?>
<!-- Generator: Adobe Illustrator 19.0.0, SVG Export Plug-In . SVG Version: 6.00 Build 0)  -->
<svg version="1.1" id="Layer_1" xmlns="http://www.w3.org/2000/svg" xmlns:xlink="http://www.w3.org/1999/xlink" x="0px" y="0px"
	 viewBox="-25 33 20.2 18" style="enable-background:new -25 33 20.2 18;" xml:space="preserve">
<style type="text/css">
	.st0{fill:#AEAEAE;}
</style>
<g>
	<path class="st0" d="M-14.9,35.3l2,4l0.2,0.5l0.5,0.1l4.4,0.6l-3.2,3.1l-0.3,0.4l0.1,0.5l0.8,4.4l-3.9-2.1l-0.5-0.2l-0.5,0.2
		l-3.9,2.1l0.8-4.4l-0.1-0.5l-0.4-0.4l-3.1-3.1l4.4-0.6l0.5-0.1l0.2-0.5L-14.9,35.3 M-14.9,33.1l-2.9,5.8l-6.4,0.9l4.6,4.5l-1.1,6.4
		l5.7-3l5.7,3l-1.1-6.4l4.6-4.5l-6.2-0.9L-14.9,33.1L-14.9,33.1z"/>
</g>
</svg>
