<?xml version="1.0" encoding="utf-8"?>
<!-- Generator: Adobe Illustrator 17.1.0, SVG Export Plug-In . SVG Version: 6.00 Build 0)  -->
<!DOCTYPE svg PUBLIC "-//W3C//DTD SVG 1.1//EN" "http://www.w3.org/Graphics/SVG/1.1/DTD/svg11.dtd">
<svg version="1.1" id="Layer_1" xmlns="http://www.w3.org/2000/svg" xmlns:xlink="http://www.w3.org/1999/xlink" x="0px" y="0px"
	 viewBox="0 0 30.7 35.3" style="enable-background:new 0 0 30.7 35.3;" xml:space="preserve">
<style type="text/css">
	.st0{fill:#1365AF;}
</style>
<path class="st0" d="M28.9,0H1.8C0.8,0,0,0.8,0,1.8V29c0,1,0.8,1.8,1.8,1.8h1.3v2.1c0,0.1,0,0.1,0,0.2c0,1.2,1,2.2,2.2,2.2
	c1.2,0,2.2-1,2.2-2.2c0-0.1,0-0.1,0-0.2v-2.1h15.8v2.1c0,0.1,0,0.1,0,0.2c0,1.2,1,2.2,2.2,2.2c1.2,0,2.2-1,2.2-2.2
	c0-0.1,0-0.1,0-0.2v-2.1h1.3c1,0,1.8-0.8,1.8-1.8V1.8C30.7,0.8,29.9,0,28.9,0z M15.3,27.2c-3.2,0-6.1-1.6-7.8-4.1
	c2.5,0.8,5.1,1.2,7.8,1.2c2.7,0,5.3-0.4,7.8-1.2C21.4,25.6,18.6,27.2,15.3,27.2z M27.7,8.9c-1.2,0-2.2,1-2.2,2.2s1,2.2,2.2,2.2v5.6
	c0,0.1-0.1,0.3-0.3,0.3H3.3c-0.1,0-0.3-0.1-0.3-0.3v-5.6c1.2,0,2.2-1,2.2-2.2s-1-2.2-2.2-2.2V3.2C3.1,3.1,3.2,3,3.3,3h24.2
	c0.1,0,0.3,0.1,0.3,0.3V8.9z"/>
</svg>
