<?xml version="1.0" encoding="utf-8"?>
<!-- Generator: Adobe Illustrator 19.0.0, SVG Export Plug-In . SVG Version: 6.00 Build 0)  -->
<svg version="1.1" id="Capa_1" xmlns="http://www.w3.org/2000/svg" xmlns:xlink="http://www.w3.org/1999/xlink" x="0px" y="0px"
	 viewBox="-83.7 236.2 89.5 71.1" style="enable-background:new -83.7 236.2 89.5 71.1;" xml:space="preserve">
<style type="text/css">
	.st0{fill:#7F7F7F;}
</style>
<g>
	<path class="st0" d="M1.1,236.2H-79c-2.6,0-4.7,2.1-4.7,4.7v50.5c0,2.6,2.1,4.7,4.7,4.7h28.8l-1.2,9.5h-5.6c-0.5,0-0.9,0.4-0.9,0.9
		c0,0.5,0.4,0.9,0.9,0.9h36.3c0.5,0,0.9-0.4,0.9-0.9c0-0.5-0.4-0.9-0.9-0.9h-5.6l-1.2-9.5H1.1c2.6,0,4.7-2.1,4.7-4.7v-50.5
		C5.8,238.3,3.7,236.2,1.1,236.2z M-81.9,240.8c0-1.6,1.3-2.9,2.9-2.9H1.1c1.6,0,2.9,1.3,2.9,2.9v43.6h-85.9V240.8z M-49.6,305.5
		l1.2-9.5h19l1.2,9.5H-49.6z M4,291.3c0,1.6-1.3,2.9-2.9,2.9h-29.8H-79c-1.6,0-2.9-1.3-2.9-2.9v-5.1H4V291.3z"/>
	<g>
		<path class="st0" d="M-38.9,246.7c2.2,0,4.1,1,5.5,2.7c1.4,1.6,2.2,3.8,2.2,6.3c0,0.1,0,0.2,0,0.3h2.6c0.5,0,0.9,0.4,0.9,0.9v17.3
			c0,0.5-0.4,0.9-0.9,0.9h-20.7c-0.5,0-0.9-0.4-0.9-0.9v-17.3c0-0.5,0.4-0.9,0.9-0.9h2.6c0-0.1,0-0.2,0-0.3c0-2.4,0.8-4.7,2.2-6.3
			C-43.1,247.7-41.1,246.7-38.9,246.7L-38.9,246.7z M-39,261.1L-39,261.1c0.6,0,1.1,0.2,1.5,0.6c0.3,0.4,0.6,0.8,0.6,1.4v5.1
			c0,0.5-0.2,1-0.6,1.4h0c-0.3,0.3-0.8,0.6-1.4,0.6H-39c-0.5,0-1-0.2-1.4-0.6c-0.4-0.4-0.6-0.8-0.6-1.4V263c0-0.5,0.2-1,0.6-1.4v0
			l0,0h0C-40,261.3-39.5,261.1-39,261.1L-39,261.1z M-38.9,262.9L-38.9,262.9c-0.1,0-0.1,0-0.1,0l0,0c0,0,0,0,0,0.1v5.1
			c0,0,0,0,0,0.1c0,0,0,0,0.1,0h0.1c0,0,0,0,0.1,0l0,0c0,0,0,0,0-0.1L-38.9,262.9C-38.8,263-38.8,263-38.9,262.9
			C-38.9,262.9-38.9,262.9-38.9,262.9L-38.9,262.9z M-31.4,257.8h-0.8h-13.5h-0.8h-1.8v15.5h18.8v-15.5H-31.4z M-34.8,250.6
			c-1.1-1.3-2.5-2-4.1-2s-3.1,0.8-4.1,2c-1.1,1.3-1.8,3.1-1.8,5.1c0,0.1,0,0.2,0,0.3H-33c0-0.1,0-0.2,0-0.3
			C-33,253.7-33.7,251.9-34.8,250.6L-34.8,250.6z"/>
	</g>
</g>
</svg>
